<svg width="44" height="58" viewBox="0 0 44 58" fill="none" xmlns="http://www.w3.org/2000/svg">
<path d="M11 0H17.4707V2.72234H13.7058V5.44468H17.4707V8.16702H11V0ZM18.7634 0H25.2366V2.36879H21.4716V2.84103H25.2366V8.28571H18.7634V5.80076H22.5284V5.32599H18.7634V0ZM26.5318 0H33V2.36879H29.235V2.84103H33V8.28571H26.5318V5.80076H30.2967V5.32599H26.5318V0Z" fill="white"/>
<path fill-rule="evenodd" clip-rule="evenodd" d="M21.978 58L5.00378 53.3055L0 11.0476H44L38.9987 53.3006L21.978 58ZM9.89267 30.1763L10.3596 35.3578H28.3922L27.7884 42.0781L21.9853 43.6413H21.9804L16.1871 42.083L15.8156 37.9509H10.5918L11.3202 46.0884L21.978 49.0346L32.6529 46.0884L33.9533 31.5666L34.0804 30.1763L35.0191 19.6842H8.95644L9.43067 24.8682H29.3187L28.8444 30.1763H9.89267V30.1763Z" fill="white"/>
</svg>
