<svg width="44" height="44" viewBox="0 0 44 44" fill="none" xmlns="http://www.w3.org/2000/svg">
<path d="M41.871 9.93547H41.455L42.4691 8.92132C43.4563 7.9341 44 6.62181 44 5.22598C44 2.3442 41.6552 0 38.774 0C37.3781 0 36.0658 0.543661 35.0787 1.53087L33.3314 3.27814C32.9531 2.99965 32.4941 2.83871 32.0214 2.83871C30.8 2.83871 29.8065 3.83225 29.8065 5.05363C29.8065 5.53329 29.9649 5.98602 30.2449 6.3643L26.6741 9.93547H2.12903C0.955184 9.93547 0 10.8907 0 12.0645V41.8709C0 43.0447 0.955184 43.9999 2.12903 43.9999H41.8709C43.0447 43.9999 43.9999 43.0447 43.9999 41.8709V12.0645C43.9999 10.8907 43.0447 9.93547 41.8709 9.93547H41.871ZM42.5806 12.0645V18.4516H32.9388L37.6353 13.7541C38.0145 14.0326 38.4736 14.1935 38.9463 14.1935C40.1677 14.1935 41.1612 13.2 41.1612 11.9786C41.1612 11.7628 41.1207 11.5557 41.0617 11.3548H41.8709C42.2625 11.3548 42.5806 11.6735 42.5806 12.0645L42.5806 12.0645ZM28.7424 38.3225H37.9681C38.1633 38.3225 38.323 38.4822 38.323 38.6774V39.387C38.323 39.5822 38.1633 39.7419 37.9681 39.7419H16.6779C16.4827 39.7419 16.323 39.5822 16.323 39.387C16.323 38.4084 15.5275 37.6128 14.5488 37.6128H1.41941V35.4838H26.9678V36.5483C26.9678 37.527 27.7633 38.3225 28.7419 38.3225H28.7424ZM36.6099 12.7742L35.4843 13.8998L31.7281 10.1437L30.7247 11.147L34.4809 14.9032L33.3553 16.0289L31.0184 13.692L30.0151 14.6954L32.3519 17.0322L31.2262 18.1579L27.47 14.4017L26.4667 15.4051L30.2229 19.1613L29.0972 20.2869L26.7604 17.9501L25.757 18.9535L28.0938 21.2903L25.5488 23.8343L20.1651 18.4516L31.2263 7.39037L36.6099 12.7742ZM16.417 34.0645H4.87484L9.02933 27.8329C9.3905 27.2912 9.9953 26.9677 10.6461 26.9677C11.2969 26.9677 11.9016 27.2912 12.2619 27.8329L16.417 34.0645ZM18.1221 34.0645L15.4019 29.9839L16.685 28.0592C17.0202 28.2629 17.4089 28.3871 17.8284 28.3871C18.4117 28.3871 18.9823 28.1508 19.3947 27.7386L19.7043 27.43C19.8427 27.5472 19.9676 27.6806 20.0689 27.833L24.2234 34.0645L18.1221 34.0645ZM19.5082 25.6173L18.3911 26.735C18.2429 26.8833 18.0379 26.9679 17.8285 26.9679C17.39 26.9679 17.0329 26.6108 17.0329 26.1723C17.0329 25.9629 17.1175 25.7579 17.2658 25.6097L18.3835 24.4926L19.5466 19.8401L24.1608 24.4543L19.5082 25.6173ZM17.1016 23.7658L16.262 24.606C15.8498 25.0185 15.6135 25.5891 15.6135 26.1723C15.6135 26.4378 15.668 26.689 15.7542 26.9254C15.7238 26.9672 15.6832 27.0027 15.6547 27.0455L14.549 28.7043L13.4426 27.0451C12.8182 26.1076 11.7726 25.5485 10.6457 25.5485C9.51886 25.5485 8.47332 26.1077 7.84889 27.0451L3.16949 34.0646H1.42003V19.8711H18.0759L17.1016 23.7658ZM25.9284 34.0646L21.2487 27.0452C21.1698 26.9273 21.0833 26.8158 20.9911 26.7093L25.9113 25.4794L31.5209 19.8711H42.5813V34.0647L25.9284 34.0646ZM36.0828 2.53472C36.8011 1.81585 37.7578 1.41984 38.7748 1.41984C40.8741 1.41984 42.5815 3.1272 42.5815 5.22646C42.5815 6.24345 42.1854 7.19928 41.4666 7.9182L39.7427 9.64235L34.359 4.25863L36.0828 2.53472ZM32.0222 4.25854C32.2316 4.25854 32.4366 4.34377 32.5849 4.49141L39.5099 11.4165C39.6604 11.567 39.7428 11.7662 39.7428 11.9791C39.7428 12.4176 39.3857 12.7747 38.9473 12.7747C38.7378 12.7747 38.5329 12.6895 38.3846 12.5418L31.4595 5.61675C31.309 5.46626 31.2267 5.26698 31.2267 5.05408C31.2267 4.6156 31.5837 4.25854 32.0222 4.25854ZM2.12982 11.3553H25.2555L18.5216 18.0893L18.4306 18.452H1.42029V12.065C1.42029 11.674 1.73838 11.3553 2.12997 11.3553L2.12982 11.3553ZM41.8717 42.5811H2.12982C1.73823 42.5811 1.42014 42.263 1.42014 41.8714V39.0327H14.5496C14.7447 39.0327 14.9044 39.1924 14.9044 39.3875C14.9044 40.3661 15.6999 41.1617 16.6786 41.1617H37.9689C38.9475 41.1617 39.7431 40.3662 39.7431 39.3875V38.6778C39.7431 37.6992 38.9475 36.9037 37.9689 36.9037H28.7431C28.5479 36.9037 28.3882 36.744 28.3882 36.5488V35.4843H42.5818V41.8714C42.5818 42.263 42.2637 42.5811 41.8721 42.5811H41.8717Z" fill="white"/>
<path d="M7.09693 12.7742H2.83887V17.0322H7.09693V12.7742ZM5.67757 15.6129H4.25822V14.1935H5.67757V15.6129Z" fill="white"/>
<path d="M12.7744 12.7742H8.51636V17.0322H12.7744V12.7742ZM11.3551 15.6129H9.93571V14.1935H11.3551V15.6129Z" fill="white"/>
<path d="M18.4514 12.7742H14.1934V17.0322H18.4514V12.7742ZM17.0321 15.6129H15.6127V14.1935H17.0321V15.6129Z" fill="white"/>
<path d="M5.67757 26.9677C7.243 26.9677 8.51628 25.6944 8.51628 24.129C8.51628 22.5636 7.243 21.2903 5.67757 21.2903C4.11215 21.2903 2.83887 22.5636 2.83887 24.129C2.83887 25.6944 4.11215 26.9677 5.67757 26.9677ZM5.67757 22.7096C6.46043 22.7096 7.09693 23.3461 7.09693 24.129C7.09693 24.9118 6.46043 25.5483 5.67757 25.5483C4.89471 25.5483 4.25822 24.9118 4.25822 24.129C4.25822 23.3461 4.89471 22.7096 5.67757 22.7096Z" fill="white"/>
<path d="M31.2256 21.2903H41.1611V22.7096H31.2256V21.2903Z" fill="white"/>
<path d="M31.2256 24.129H41.1611V25.5484H31.2256V24.129Z" fill="white"/>
<path d="M31.2256 26.9678H41.1611V28.3871H31.2256V26.9678Z" fill="white"/>
<path d="M31.2256 29.8064H41.1611V31.2257H31.2256V29.8064Z" fill="white"/>
</svg>
