<svg width="45" height="64" viewBox="0 0 45 64" fill="none" xmlns="http://www.w3.org/2000/svg">
<path d="M38.6863 21.9927C41.5729 20.0828 43.494 17.0239 43.9571 13.5995C44.4201 10.175 43.3804 6.71798 41.1038 4.1134C38.8276 1.50883 35.5355 0.00995364 32.0712 0H12.0271C8.56283 0.0099574 5.2707 1.50883 2.99452 4.1134C0.717853 6.71798 -0.321841 10.1752 0.141232 13.5995C0.604269 17.0239 2.52536 20.0827 5.41199 21.9927C2.05279 24.2151 0.0334046 27.9682 0.0334046 31.9891C0.0334046 36.01 2.05292 39.763 5.41199 41.9854C1.87462 44.3094 -0.176773 48.3174 0.0119858 52.538C0.20072 56.7586 2.60093 60.5689 6.33193 62.5699C10.0623 64.5704 14.5734 64.4661 18.2068 62.2949C21.8407 60.1242 24.0617 56.2072 24.0537 51.9823V40.986C26.3032 42.8722 29.1337 43.931 32.0717 43.9851C35.536 43.9756 38.8281 42.4762 41.1043 39.8717C43.3809 37.2671 44.4206 33.8099 43.9576 30.3856C43.4945 26.9617 41.5734 23.9029 38.6868 21.9929L38.6863 21.9927ZM24.053 3.99845H32.071C34.9357 3.99845 37.5827 5.52293 39.0152 7.99702C40.4471 10.4717 40.4471 13.5201 39.0152 15.9943C37.5827 18.469 34.9357 19.9929 32.071 19.9929H24.053V3.99845ZM4.00878 11.9957C4.00878 9.87474 4.85355 7.84068 6.35724 6.34083C7.86093 4.84099 9.90033 3.99845 12.0268 3.99845H20.0449V19.9935H12.0268C9.90033 19.9935 7.86098 19.1509 6.35724 17.6511C4.85362 16.1514 4.00878 14.1172 4.00878 11.9962V11.9957ZM4.00878 31.9892C4.00878 29.8682 4.85355 27.8341 6.35724 26.3343C7.86086 24.8346 9.90033 23.9919 12.0268 23.9919H20.0449V39.9869H12.0268C9.90033 39.9869 7.86098 39.1443 6.35724 37.6445C4.85362 36.1448 4.00878 34.1106 4.00878 31.9897V31.9892ZM20.0453 51.9826C20.0453 54.1036 19.2006 56.1377 17.6969 57.6375C16.1932 59.1374 14.1538 59.9799 12.0273 59.9799C9.90082 59.9799 7.86147 59.1373 6.35773 57.6375C4.85399 56.1377 4.00926 54.1036 4.00926 51.9826C4.00926 49.8617 4.85404 47.8276 6.35773 46.3278C7.86135 44.828 9.90082 43.9854 12.0273 43.9854H20.0453V51.9826ZM32.0723 39.9868H32.0719C29.9454 39.9868 27.906 39.1442 26.4023 37.6444C24.8987 36.1447 24.0538 34.1105 24.0538 31.9895C24.0538 29.8686 24.8986 27.8345 26.4023 26.3347C27.9059 24.8349 29.9454 23.9923 32.0719 23.9923C34.1984 23.9923 36.2377 24.8349 37.7414 26.3347C39.2451 27.8344 40.0899 29.8686 40.0899 31.9895C40.0899 34.1105 39.2451 36.1446 37.7414 37.6444C36.2378 39.1441 34.1984 39.9868 32.0719 39.9868H32.0723Z" fill="white"/>
</svg>
