<svg width="44" height="32" viewBox="0 0 44 32" fill="none" xmlns="http://www.w3.org/2000/svg">
<path d="M21.0429 32C12.3489 32 5.30859 24.8405 5.30859 16C5.30859 7.15961 12.3489 0 21.0429 0C24.6696 0 28.2436 1.30179 31.0702 3.6339C32.8303 5.0984 34.2706 6.99651 35.2305 9.05763C35.4437 9.43747 35.2305 9.92551 34.857 10.1423C34.4834 10.3591 34.0035 10.1423 33.7903 9.76243C32.8836 7.91846 31.6034 6.2372 30.0568 4.88127C27.55 2.76601 24.3496 1.57279 21.0428 1.57279C13.2555 1.57279 6.90861 8.02713 6.90861 15.9457C6.90861 23.8645 13.2554 30.3728 21.0428 30.3728C26.5365 30.3728 31.5502 27.1184 33.897 22.0204C34.057 21.5865 34.5369 21.4238 34.9636 21.6406C35.3904 21.8033 35.5504 22.2913 35.3372 22.7253C32.7767 28.3657 27.1763 31.9996 21.0429 31.9996V32Z" fill="white"/>
<path d="M9.14883 26.3593C4.4551 26.3593 1.14832 25.0575 0.241599 22.6168C-0.718652 19.9591 1.20147 16.5423 5.68166 13.1253C6.0552 12.854 6.53513 12.9085 6.80192 13.288C7.06868 13.6678 7.01511 14.1559 6.64194 14.4271C2.90846 17.3017 1.09511 20.1762 1.73496 22.0747C2.8016 25.0033 10.1622 26.0339 20.7228 22.7254C21.1496 22.6168 21.5763 22.834 21.7363 23.268C21.8431 23.7019 21.6296 24.1358 21.2028 24.2986C16.7226 25.7086 12.5624 26.3593 9.14871 26.3593L9.14883 26.3593Z" fill="white"/>
<path d="M41.0975 8.29828C40.7775 8.29828 40.4576 8.0815 40.3508 7.75575C39.6573 5.85725 36.4573 4.88118 31.7636 5.09803H30.537C30.1102 5.09803 29.7371 4.71818 29.7371 4.28463C29.7371 3.85068 30.1106 3.47122 30.537 3.47122H31.7104C37.2572 3.19996 40.8843 4.50183 41.8443 7.21369C42.0043 7.64764 41.7911 8.08157 41.3644 8.2443C41.2576 8.2984 41.2044 8.2984 41.0976 8.2984L41.0975 8.29828Z" fill="white"/>
<path d="M21.043 24.1898C20.9363 24.1898 20.8298 24.1898 20.7231 24.1357L16.8296 22.2918C16.4028 22.1291 16.2429 21.641 16.456 21.2071C16.6692 20.7732 17.096 20.6105 17.5227 20.8273L21.4162 22.6712C21.8429 22.8339 22.0029 23.322 21.7897 23.7559C21.6297 24.0268 21.363 24.1898 21.043 24.1898H21.043Z" fill="white"/>
<path d="M19.2296 28.1492C19.1228 28.1492 19.0164 28.1492 18.9097 28.0951C18.4829 27.9324 18.3229 27.4444 18.5361 27.0104L20.3495 23.0512C20.5627 22.6173 20.9894 22.4546 21.4161 22.6714C21.8429 22.8341 22.0028 23.3221 21.7897 23.756L19.9763 27.6611C19.8163 27.9865 19.5496 28.1492 19.2296 28.1492L19.2296 28.1492Z" fill="white"/>
<path d="M25.6299 22.5084C25.5231 22.5084 25.4167 22.5084 25.3099 22.4543L18.9096 19.4712C18.5896 19.3085 18.3761 18.9286 18.4829 18.5492C18.5896 18.1693 18.8564 17.8985 19.2296 17.8985L25.5767 17.6817L27.87 16.2716L24.2964 12.3665C24.1365 12.2038 24.0833 11.9867 24.0833 11.7699C24.0833 11.5531 24.19 11.3359 24.35 11.1732C24.4568 11.1191 25.2567 10.4139 26.8568 10.4139C28.8302 10.4139 31.1239 11.4445 33.6839 13.3971L39.1244 10.8479C39.4443 10.6853 39.9243 10.6312 40.4578 10.6312C41.4713 10.6312 43.3378 10.9024 43.8181 12.0412C44.0313 12.5293 44.2449 13.3972 43.2846 14.2105C42.8047 14.5904 42.0579 14.9698 41.1513 15.4037L25.9494 22.4543C25.8426 22.5084 25.7362 22.5084 25.6294 22.5084L25.6299 22.5084ZM22.6431 19.4171L25.6299 20.773L40.4041 13.9392C41.204 13.5594 42.2175 13.1258 42.3243 12.8546C42.3243 12.8546 42.3243 12.8005 42.2711 12.746C42.1643 12.5833 41.3644 12.312 40.3509 12.312C39.9774 12.312 39.7642 12.3661 39.6574 12.4206L33.7902 15.1325C33.5235 15.2411 33.2035 15.2411 32.9367 15.0239C29.95 12.5833 27.923 12.0953 26.7496 12.0953C26.5364 12.0953 26.3229 12.0953 26.1097 12.1494L29.5764 15.8919C29.7363 16.0545 29.8431 16.3258 29.7895 16.5426C29.7363 16.7594 29.6296 16.9765 29.416 17.1392L26.1092 19.2003C26.0024 19.2544 25.8425 19.3089 25.7357 19.3089L22.6431 19.4171Z" fill="white"/>
</svg>
