<svg width="44" height="59" viewBox="0 0 44 59" fill="none" xmlns="http://www.w3.org/2000/svg">
<path d="M5.08472 0H7.72961V2.60543H10.1496V0H12.7945V7.88698H10.1496V5.24743H7.72961V7.88698H5.08716V0H5.08472ZM16.2705 2.61518H13.9434V0H21.2449V2.61518H18.9154V7.88698H16.2705V2.61518V2.61518ZM22.4036 0H25.1609L26.8574 2.77117L28.5514 0H31.3087V7.88698H28.676V3.97761L26.8574 6.7829H26.8109L24.9898 3.98005V7.88698H22.4036V0V0ZM32.6238 0H35.2712V5.28155H38.9867V7.88942H32.6238V0V0Z" fill="white"/>
<path fill-rule="evenodd" clip-rule="evenodd" d="M5.00133 54.301L0 12.0023H44L38.9962 54.2961L21.9756 59.0001L5.00133 54.301ZM15.114 31.147L14.6398 25.8338H34.5498L35.0142 20.6473H8.95644L10.3596 36.3359H28.3922L27.7884 43.0628L21.9853 44.6275H21.9804L16.1871 43.0677L15.8156 38.9316H10.5893L11.3178 47.077L21.9756 50.0261L32.6504 47.077L33.9509 32.5411L34.078 31.1495H15.114V31.147Z" fill="white"/>
</svg>
