<svg width="44" height="44" viewBox="0 0 44 44" fill="none" xmlns="http://www.w3.org/2000/svg">
<path d="M16.4866 27.1632L16.5529 27.1955L16.6712 27.2526C16.8221 27.3244 16.9743 27.3955 17.128 27.464L17.2246 27.5069C17.4009 27.5843 17.5783 27.6578 17.7578 27.7286L17.8877 27.7795C18.0534 27.8441 18.2218 27.9067 18.3906 27.9662L18.4538 27.9878C18.6391 28.0525 18.8261 28.1126 19.0149 28.1714L19.1506 28.2116C19.3424 28.2697 19.5319 28.3388 19.7299 28.3756C32.2953 30.6667 35.9449 20.8244 35.9449 20.8244C32.8793 24.8181 27.4381 25.8717 22.2825 24.6988C22.0873 24.6548 21.8975 24.5936 21.7071 24.5373L21.5638 24.494C21.3778 24.4369 21.1929 24.3767 21.0096 24.3138L20.9337 24.2863C20.7694 24.2286 20.6068 24.1674 20.4452 24.1052L20.3084 24.0516C20.131 23.9818 19.955 23.9086 19.7811 23.8322L19.6755 23.7855C19.526 23.7178 19.3778 23.6494 19.2307 23.5786L19.1018 23.5167C18.9863 23.4603 18.8719 23.4001 18.7577 23.3414L18.5281 23.2211C18.3889 23.1465 18.2521 23.0691 18.1159 22.9897L17.9767 22.912C17.7956 22.8051 17.6165 22.6948 17.4394 22.5827L17.2947 22.4865C17.1662 22.4036 17.0383 22.3194 16.9125 22.2324L16.7894 22.1458C16.6677 22.0599 16.5474 21.9729 16.4281 21.8846L16.2679 21.7632C16.1586 21.6797 16.0497 21.5955 15.9421 21.5088L15.7967 21.392C15.6598 21.2792 15.5244 21.1661 15.3904 21.0499L15.346 21.0125C15.2006 20.886 15.0586 20.7557 14.9184 20.625L14.7981 20.5092C14.6939 20.4105 14.5918 20.3109 14.4911 20.2088L14.3708 20.0885C14.2429 19.9575 14.1174 19.8248 13.9944 19.6904L13.9758 19.6705C13.8455 19.5281 13.7184 19.3827 13.5939 19.236L13.4939 19.117C13.4011 19.0053 13.3089 18.8919 13.2192 18.7774L13.1185 18.6523C13.0102 18.512 12.9047 18.3721 12.8012 18.2298C9.93916 14.3255 8.91066 8.94064 11.1983 4.5183L9.17054 7.09024C6.57213 10.8244 6.89594 15.683 8.88041 19.6512L9.02582 19.9334L9.11897 20.1122L9.17672 20.215L9.28019 20.4002C9.34172 20.5089 9.40463 20.6168 9.46926 20.7247L9.57754 20.9031C9.64904 21.0186 9.72226 21.1328 9.79754 21.2469L9.89104 21.392C9.99451 21.546 10.1004 21.7 10.2093 21.8512L10.2186 21.8632L10.2723 21.9358C10.3668 22.066 10.4641 22.1946 10.5624 22.3218L10.6717 22.4607C10.7593 22.571 10.8491 22.681 10.9398 22.7903L11.0423 22.9124C11.1643 23.0564 11.2887 23.1994 11.4159 23.3393L11.4235 23.3472L11.4379 23.363C11.5617 23.4985 11.6888 23.6305 11.8174 23.7631L11.9391 23.8859C12.0388 23.9862 12.1398 24.0849 12.2423 24.1832L12.3664 24.3011C12.5028 24.4297 12.6407 24.5558 12.7816 24.6796L12.7885 24.6847L12.8607 24.7466C12.9848 24.8539 13.1113 24.9608 13.2385 25.0656L13.3949 25.1901C13.4987 25.2732 13.6039 25.3554 13.7098 25.4362L13.8779 25.564C13.9947 25.65 14.1123 25.7346 14.2309 25.8174L14.3598 25.9088L14.3952 25.9339C14.5079 26.0116 14.6231 26.0859 14.7383 26.1605L14.8868 26.2595C15.0631 26.3712 15.2425 26.4815 15.4237 26.5881L15.5722 26.672C15.7056 26.7486 15.8393 26.8239 15.9751 26.8975L16.1978 27.013L16.4866 27.1632ZM17.756 14.5149C18.0376 14.9185 18.3493 15.3983 18.723 15.7228C18.8584 15.872 19.0001 16.0171 19.1444 16.1604L19.2558 16.2697C19.3964 16.4059 19.5391 16.5396 19.6862 16.6699L19.7041 16.685L19.7082 16.6895C19.8715 16.8325 20.0399 16.97 20.2111 17.1054L20.3256 17.1948C20.4974 17.3264 20.6724 17.4557 20.8519 17.5791L20.8673 17.5904L21.1073 17.7486L21.2214 17.8242C21.3496 17.906 21.4792 17.9864 21.6115 18.0627L21.6665 18.0947C21.7803 18.1604 21.8958 18.225 22.0113 18.2875L22.1337 18.3518L22.375 18.4766L22.4114 18.4931C22.5771 18.5746 22.7442 18.653 22.9147 18.7276L23.0257 18.7733C23.1618 18.831 23.2997 18.8877 23.4379 18.9407L23.6146 19.0053C23.7404 19.052 23.8662 19.0947 23.9934 19.137L24.1649 19.192C24.3457 19.248 24.5241 19.3188 24.7125 19.3501C34.4138 20.9578 36.6537 13.4878 36.6537 13.4878C34.6345 16.3955 30.7247 17.7826 26.5523 16.6998C26.367 16.651 26.1841 16.5984 26.0029 16.541L25.8376 16.4877C25.7087 16.4461 25.5805 16.4017 25.4533 16.3553L25.28 16.2907C25.1408 16.2371 25.0026 16.1817 24.8662 16.124L24.7548 16.0766C24.5836 16.002 24.4148 15.9236 24.2488 15.8411L23.9948 15.7118L23.8483 15.6365C23.7404 15.5781 23.6331 15.5169 23.5273 15.4554L23.4506 15.4117C23.3189 15.3351 23.1897 15.256 23.0615 15.1749L22.9443 15.0962L22.6926 14.9298C22.5135 14.8064 22.3396 14.6775 22.1684 14.5465L22.0505 14.4534C20.2242 13.012 18.7766 11.041 18.0881 8.80624C17.3669 6.48936 17.5223 3.88786 18.7718 1.77689L17.2366 3.94458C15.3577 6.64817 15.4598 10.2682 16.9255 13.1279C17.171 13.6067 17.447 14.0721 17.756 14.5149ZM27.9816 11.1699L28.2225 11.2534L28.3288 11.2871C28.4432 11.3228 28.5563 11.3648 28.6742 11.3868C34.0309 12.4218 35.4843 8.6378 35.871 8.08092C34.5981 9.91346 32.4593 10.3531 29.8347 9.71614C29.6274 9.66596 29.3995 9.59136 29.1995 9.52021C28.9434 9.42877 28.6911 9.32496 28.4456 9.20739C27.9795 8.98327 27.5354 8.71205 27.1236 8.40061C24.7751 6.61827 23.3162 3.21961 24.8486 0.45105L24.0195 1.59367C22.9119 3.22408 22.803 5.24877 23.5716 7.04864C24.3822 8.95989 26.0432 10.4586 27.9816 11.1699ZM22.8109 33.1015H21.3582C21.2778 33.1015 21.1977 33.1661 21.1805 33.2448L20.6649 35.6304L20.1492 38.0161C20.1324 38.0948 20.0523 38.1594 19.9718 38.1594H18.9437C17.9265 38.1594 18.0441 37.4557 18.2524 36.4919L18.2586 36.4626L18.2813 36.341L18.2854 36.3183L18.3318 36.0708L18.3817 35.8057L18.4346 35.5359L18.669 34.3905L18.9038 33.2451C18.92 33.1661 18.867 33.1011 18.7866 33.1011H17.2958C17.2153 33.1011 17.1356 33.1657 17.1191 33.2448L16.7984 34.7656L16.478 36.2866L16.4773 36.2887L16.4477 36.4303C16.0785 38.1157 16.1762 39.7235 18.183 39.774L18.2414 39.775H21.3912C21.4716 39.775 21.5517 39.7104 21.5686 39.6317L22.2478 36.4386L22.9271 33.2451C22.9439 33.1661 22.8917 33.1018 22.8109 33.1015ZM7.25413 33.0846H5.65913C5.57835 33.0846 5.49791 33.1492 5.48004 33.2276L5.32879 33.8952L5.17754 34.5627C5.16001 34.6415 5.21122 34.7057 5.29201 34.7057H6.89938C6.98016 34.7057 7.06026 34.6411 7.07744 34.5624L7.22354 33.8952L7.36963 33.228C7.38647 33.1492 7.33491 33.0846 7.25413 33.0846ZM6.79144 35.1622H5.18372C5.10329 35.1622 5.02251 35.2269 5.00463 35.3052L4.77879 36.3055L4.55329 37.3055L4.49038 37.5922L4.27347 38.6131L4.05691 39.6344C4.04007 39.7131 4.00535 39.8403 3.97957 39.9166C3.97957 39.9166 3.67913 40.8104 3.17416 40.8001L3.11091 40.7987L2.67401 40.7908H2.67366C2.59322 40.7898 2.51244 40.8527 2.49354 40.9307L2.32682 41.6316L2.16044 42.3322C2.14154 42.4106 2.19241 42.4752 2.27251 42.4766C2.55885 42.48 3.20029 42.4872 3.58838 42.4872C4.8496 42.4872 5.51476 41.7884 5.94066 39.7774L6.43944 37.4695L6.90729 35.3049C6.92413 35.2269 6.87188 35.1622 6.79144 35.1622ZM36.3942 34.6212L36.3275 34.3458L36.2618 34.064L36.2285 33.9216C36.0978 33.4139 35.7146 33.1214 34.882 33.1214L33.5861 33.12L32.3926 33.1183H31.0495C30.9691 33.1183 30.8893 33.1829 30.8725 33.2616L30.813 33.5421L30.7429 33.8735L30.7233 33.9667L30.1187 36.7992L29.5446 39.488C29.5274 39.5671 29.5219 39.664 29.5315 39.7032C29.5412 39.7427 29.6962 39.775 29.7766 39.775H30.988C31.0688 39.775 31.1709 39.7606 31.2149 39.7427C31.2589 39.7248 31.3238 39.5664 31.34 39.4876L31.5552 38.4224L31.7707 37.3567L31.7711 37.355L31.7999 37.2131L32.0612 35.9893L32.2918 34.9086C32.309 34.8298 32.3884 34.7656 32.4689 34.7652L36.2807 34.7635C36.3615 34.7642 36.4124 34.6999 36.3942 34.6212ZM41.3012 32.1324L41.0076 32.1335H39.7877C39.7069 32.1335 39.6034 32.1881 39.5584 32.2548L36.8603 36.2072C36.8149 36.2739 36.763 36.2643 36.7451 36.1859L36.5464 35.3152C36.5286 35.2365 36.4478 35.1722 36.367 35.1722H34.6328C34.552 35.1722 34.5042 35.2355 34.5262 35.3128L35.3034 38.0356C35.3254 38.1133 35.3272 38.2405 35.3072 38.3189L34.9686 39.6365C34.9483 39.7149 34.9978 39.7785 35.0786 39.7785H36.7929C36.8733 39.7785 36.9558 39.7145 36.9758 39.6365L37.3147 38.3189C37.3347 38.2402 37.3907 38.124 37.4395 38.0594L41.8196 32.2462C41.8684 32.1816 41.8419 32.129 41.7615 32.1297L41.3012 32.1324ZM27.5216 35.5421V35.5407C27.5117 35.628 27.4309 35.6923 27.3501 35.6923H25.1511C25.0748 35.6923 25.0363 35.6407 25.0477 35.5768L25.0497 35.5716L25.0483 35.5723L25.0494 35.5651L25.0593 35.5276C25.2694 34.9694 25.697 34.603 26.501 34.603C27.4065 34.6026 27.5832 35.0447 27.5216 35.5421ZM26.8764 33.0038C24.0539 33.0038 23.3849 34.7171 23.0096 36.4465C22.6345 38.2092 22.6665 39.8568 25.5877 39.8568H25.9418L26.0298 39.8565H26.0504L26.401 39.8555H26.4072C27.1786 39.8524 27.9523 39.8465 28.2655 39.8441C28.3456 39.8427 28.424 39.7785 28.4405 39.6997L28.5587 39.1219L28.5818 39.0095L28.7227 38.3199C28.7388 38.2412 28.6863 38.1762 28.6055 38.1762H25.9796C24.9349 38.1762 24.6248 37.8988 24.7393 37.0828H28.9368L28.9365 37.0831L28.9393 37.0828C29.0059 37.0817 29.0678 37.0357 29.0922 36.9745L29.1022 36.9381L29.1019 36.9384C29.7251 34.5875 29.5463 33.0042 26.8764 33.0038ZM13.5355 35.5331L13.4956 35.6737V35.6741L13.1787 36.7975L12.8617 37.9205C12.8401 37.9985 12.7558 38.0618 12.6751 38.0618H10.9976C9.72501 38.0618 9.41494 37.0663 9.72501 35.5985C10.0347 34.097 10.6421 33.1637 11.8948 33.0691C13.6066 32.9399 13.949 34.1437 13.5355 35.5331ZM14.6863 37.9755C14.6863 37.9755 15.4773 36.0546 15.6568 34.9457C15.9019 33.461 15.1583 31.3071 12.2866 31.3071C9.43144 31.3071 8.19119 33.363 7.71819 35.5985C7.24519 37.85 7.86497 39.8242 10.704 39.808L12.9439 39.7998L15.037 39.7922C15.1174 39.7915 15.1999 39.7276 15.2205 39.6499L15.5853 38.2591C15.6055 38.1807 15.5564 38.1168 15.4756 38.1161L15.126 38.114L14.7764 38.112C14.708 38.1116 14.6688 38.0669 14.6771 38.0081L14.6863 37.9755ZM28.8214 36.6895C28.8214 36.7428 28.7784 36.7861 28.7251 36.7861C28.6722 36.7861 28.6288 36.7428 28.6288 36.6895C28.6288 36.6366 28.6718 36.5936 28.7251 36.5936C28.7784 36.5936 28.8214 36.6366 28.8214 36.6895Z" fill="white"/>
</svg>
