<svg width="44" height="44" viewBox="0 0 44 44" fill="none" xmlns="http://www.w3.org/2000/svg">
<path d="M0 0V44H44V0H0ZM23.5714 34.1786C23.5714 38.4617 21.0414 40.5497 17.379 40.5497C14.0712 40.5497 12.1511 38.8369 11.1768 36.7695L14.5436 34.7315C15.1928 35.8836 15.6858 36.8579 17.103 36.8579C18.2816 36.8579 19.25 36.3265 19.25 34.2591V20.4286H23.5714V34.1786ZM33.329 40.4515C29.4898 40.4515 27.0089 38.719 25.7979 36.3265L29.1696 34.375C30.0536 35.8227 31.2076 36.7871 33.2455 36.7871C34.9584 36.7871 35.9533 36.0289 35.9533 34.8474C35.9533 33.4302 34.9289 32.9283 33.0383 32.0974L32.0051 31.6535C29.0213 30.3846 27.0433 28.7896 27.0433 25.4218C27.0433 22.3212 29.4054 20.0563 33.0972 20.0563C35.7264 20.0563 37.6151 20.8735 38.9754 23.266L35.75 25.3393C35.0409 24.0694 34.2768 23.5714 33.0923 23.5714C31.8813 23.5714 31.1133 24.3395 31.1133 25.3393C31.1133 26.5797 31.8813 27.0816 33.6531 27.8496L34.6863 28.2926C38.2014 29.7992 40.1804 31.3372 40.1804 34.7904C40.1814 38.5128 37.2576 40.4515 33.329 40.4515Z" fill="white"/>
</svg>
