<svg width="44" height="44" viewBox="0 0 44 44" fill="none" xmlns="http://www.w3.org/2000/svg">
<path d="M39.7501 44H4.24987C1.90637 44 0 42.0936 0 39.7501V4.24987C0 1.90637 1.90637 0 4.24987 0H39.7501C42.0936 0 44 1.90637 44 4.24987V39.7501C44.0004 42.0936 42.0936 44 39.7501 44ZM4.25077 2.50044C3.28578 2.50044 2.50062 3.28558 2.50062 4.25059V39.7508C2.50062 40.7155 3.28577 41.501 4.25077 41.501H39.751C40.716 41.501 41.5012 40.7159 41.5012 39.7508L41.5008 4.25059C41.5008 3.28596 40.7157 2.50044 39.7507 2.50044H4.25077Z" fill="white"/>
<path d="M12.5535 12.7376C13.5951 12.5638 14.9596 12.4149 16.6957 12.4149C18.8287 12.4149 20.3913 12.9108 21.3833 13.8043C22.2762 14.5979 22.847 15.8131 22.847 17.3014C22.847 18.8147 22.4004 20.0049 21.5572 20.8731C20.3916 22.0883 18.5563 22.7088 16.4476 22.7088C15.8025 22.7088 15.2074 22.6838 14.7112 22.5599V29.2567H12.5532L12.5535 12.7376ZM14.7115 20.7985C15.1827 20.9221 15.7778 20.9717 16.4971 20.9717C19.1014 20.9717 20.6889 19.6823 20.6889 17.4246C20.6889 15.192 19.1014 14.126 16.7453 14.126C15.8028 14.126 15.0835 14.2007 14.7115 14.2999V20.7985Z" fill="white"/>
<path d="M24.8319 27.049C25.5016 27.4459 26.6426 27.8922 27.7339 27.8922C29.2964 27.8922 30.0407 27.1236 30.0407 26.1065C30.0407 25.0652 29.4206 24.519 27.8331 23.9239C25.6504 23.1299 24.6337 21.9643 24.6337 20.526C24.6337 18.5914 26.2212 17.0039 28.7755 17.0039C29.9907 17.0039 31.0574 17.3263 31.7021 17.7475L31.1813 19.3351C30.71 19.0377 29.8422 18.6157 28.7259 18.6157C27.4361 18.6157 26.7417 19.36 26.7417 20.2529C26.7417 21.245 27.4361 21.6912 28.9987 22.3113C31.0575 23.0803 32.1488 24.122 32.1488 25.908C32.1488 28.0407 30.487 29.529 27.6842 29.529C26.3698 29.529 25.1542 29.1816 24.311 28.6857L24.8319 27.049Z" fill="white"/>
</svg>
