<svg width="44" height="38" viewBox="0 0 44 38" fill="none" xmlns="http://www.w3.org/2000/svg">
<path d="M42.4189 22.4133C41.2551 22.0386 39.4694 22.6409 39.5218 24.6995L38.1003 25.4555L38.288 24.1892C38.323 23.9488 38.153 23.7259 37.9085 23.6918C37.7482 23.6694 36.5176 23.82 36.5176 23.82C36.4237 9.369 22.0051 9.67204 22.0051 9.67204C21.4385 9.22276 21.0343 8.60637 20.8516 7.91361H22.5836C23.1269 7.91361 23.1727 7.0344 22.6398 7.0344H20.6725C20.6435 6.81574 20.6279 6.31341 20.6279 6.27815H22.631C23.236 6.27815 23.3411 5.39893 22.631 5.39893H20.7533C20.8478 4.9653 21.0371 4.5574 21.3078 4.20294C22.423 4.68871 24.4104 4.27163 24.4104 2.19823C24.4104 0.984101 23.4097 0 22.175 0C20.9404 0 19.9396 0.984101 19.9396 2.19823C19.944 2.75821 20.1645 3.29578 20.5565 3.70182C20.1701 4.19464 19.9066 4.76992 19.7874 5.38119H18.8039C18.197 5.38119 18.0601 6.2604 18.8039 6.2604H19.6979C19.6979 6.2604 19.7145 6.7977 19.7425 7.01666H18.8485C18.1967 7.01666 18.2915 7.89587 18.8485 7.89587H19.9393C20.114 8.55399 20.4177 9.17226 20.8334 9.716C13.6629 10.3511 8.06135 16.0807 7.69889 23.1519L6.17891 22.9937C5.93223 22.9814 5.72234 23.1682 5.70987 23.4107C5.70831 23.4389 5.9104 24.761 5.9104 24.761L4.49771 24.0047C4.75343 21.9718 2.75035 21.3189 1.56535 21.6928C0.380278 22.0666 -0.271818 23.3144 0.108358 24.4798C0.488511 25.6452 1.75744 26.2864 2.94252 25.9126C3.48546 25.7411 3.94229 25.3737 4.22052 24.8843L6.34861 26.0978C6.57752 26.2229 7.03189 26.2063 6.95674 25.623L6.70632 23.8646L7.68989 23.9876C7.78563 31.82 14.3203 38.0932 22.2854 37.999C29.8485 37.9094 36.057 32.0894 36.5089 24.6643L37.4029 24.5588L37.1525 26.2735C37.1045 26.6819 37.3078 26.9027 37.7338 26.7571L39.871 25.5086C40.137 25.9929 40.5821 26.3578 41.1137 26.5286C42.2792 26.9025 43.5983 26.2959 43.9124 25.1305C44.4391 23.1769 42.4192 22.4134 42.4192 22.4134L42.4189 22.4133ZM22.1934 0.914621C22.9291 0.914621 23.5257 1.50129 23.5257 2.22477C23.5257 2.94824 22.9291 3.53491 22.1934 3.53491C21.4577 3.53491 20.8611 2.94824 20.8611 2.22477V2.21587C20.8611 1.49704 21.4537 0.914677 22.1843 0.914363C22.1874 0.91467 22.1906 0.91467 22.1934 0.91467L22.1934 0.914621ZM2.69202 25.0426C1.99315 25.2686 1.23998 24.8947 1.01021 24.2075C0.780371 23.5202 1.16052 22.7796 1.85942 22.5536C2.55829 22.3276 3.31146 22.7014 3.54123 23.3887C3.54123 23.389 3.54154 23.3893 3.54154 23.3896C3.77107 24.0766 3.39092 24.8166 2.69201 25.0426L2.69202 25.0426ZM21.6034 18.9401L22.0952 19.67L22.578 18.9401C24.262 16.4198 27.7046 15.7192 30.2677 17.3748C32.8306 19.0309 33.5431 22.4162 31.8595 24.9367C30.1754 27.457 24.94 28.2736 22.5786 24.9367L22.0959 24.2157L21.6041 24.9367C19.92 27.457 16.4774 28.1577 13.9143 26.502C11.3514 24.846 10.5909 21.4287 12.3226 18.9401C15.5793 14.2603 21.1955 17.8873 21.6034 18.9401ZM22.0952 17.6742C21.2411 16.6989 20.1162 15.9899 18.8581 15.6342L18.3218 11.3871C20.9301 10.6152 23.719 10.6642 26.2975 11.5278L25.4479 15.5989C24.1419 15.9393 22.9721 16.6631 22.0952 17.6742H22.0952ZM22.0952 36.922C14.7719 36.9404 8.81941 31.1173 8.80104 23.9156C8.7867 18.4454 12.2461 13.5478 17.4632 11.651L17.9285 15.4142C13.4832 14.6448 10.226 18.2672 10.21 21.919C10.194 25.5708 13.1917 28.5438 16.9052 28.5594C18.9083 28.568 20.8109 27.6976 22.0952 26.1855C24.4902 28.9701 28.7271 29.3178 31.5589 26.9626C34.3906 24.6074 34.7441 20.4409 32.3491 17.6562C31.0724 16.1719 28.4324 14.9744 26.3961 15.3703L27.147 11.7825C33.9374 14.4932 37.2071 22.104 34.4507 28.7811C32.4108 33.7228 27.5184 36.946 22.0954 36.9217L22.0952 36.922ZM42.9914 24.893C42.7631 25.5756 42.0152 25.9474 41.321 25.7231C40.6268 25.4987 40.2488 24.7632 40.4769 24.0806C40.7042 23.3998 41.4486 23.0281 42.1418 23.2489C42.8373 23.4703 43.2183 24.2042 42.9929 24.888C42.9926 24.8896 42.9919 24.8914 42.9913 24.893L42.9914 24.893Z" fill="white"/>
<path d="M23.981 30.1692C23.6601 30.1692 23.3997 30.425 23.3997 30.7408C23.4595 31.4523 22.9241 32.1356 22.1981 32.1356C20.9244 32.1356 20.7738 30.8117 20.7797 30.7408C20.7794 30.4253 20.519 30.1695 20.1978 30.1698C19.8772 30.1701 19.6174 30.4256 19.6171 30.7408C19.5351 32.0835 20.5733 33.2782 21.9407 33.3184C24.7009 33.3991 24.5678 30.8383 24.5619 30.7408C24.5619 30.4253 24.3018 30.1692 23.9806 30.1692H23.9809H23.981Z" fill="white"/>
<path d="M14.7534 22.3693C14.7534 23.7582 15.8983 24.884 17.3106 24.884C18.723 24.884 19.8678 23.7582 19.8678 22.3693C19.8678 20.9804 18.723 19.8546 17.3106 19.8546C15.8983 19.8543 14.7534 20.9804 14.7534 22.3693ZM17.3106 20.9975C18.0809 20.9975 18.7056 21.6118 18.7056 22.3693C18.7056 23.1268 18.0809 23.7411 17.3106 23.7411C16.5403 23.7411 15.9157 23.1268 15.9157 22.3693C15.9157 21.6115 16.5403 20.9975 17.3106 20.9975Z" fill="white"/>
<path d="M26.8693 24.8754C28.2817 24.8803 29.4306 23.7582 29.4356 22.3692C29.4406 20.9803 28.2996 19.8505 26.8871 19.8456C25.4747 19.8407 24.3258 20.9628 24.3208 22.3517V22.3692C24.3258 23.7514 25.4637 24.8704 26.8693 24.8754V24.8754ZM26.8693 20.9978C27.6396 20.9929 28.2683 21.6032 28.273 22.3606C28.278 23.1181 27.6574 23.7363 26.8871 23.7409C26.1168 23.7458 25.4882 23.1356 25.4834 22.3781V22.3692C25.4831 21.6151 26.1022 21.0024 26.8693 20.9978V20.9978Z" fill="white"/>
</svg>
