<svg width="44" height="44" viewBox="0 0 44 44" fill="none" xmlns="http://www.w3.org/2000/svg">
<path d="M22 0C17.6488 0 13.3953 1.29028 9.77746 3.70767C6.15958 6.12506 3.33979 9.56099 1.67466 13.581C0.00953225 17.6009 -0.426141 22.0244 0.422734 26.292C1.27161 30.5596 3.3669 34.4796 6.44366 37.5563C9.52041 40.6331 13.4404 42.7284 17.708 43.5773C21.9756 44.4261 26.3991 43.9905 30.419 42.3253C34.439 40.6602 37.8749 37.8404 40.2923 34.2225C42.7097 30.6047 44 26.3512 44 22C44 19.1109 43.431 16.2501 42.3254 13.581C41.2197 10.9118 39.5992 8.48654 37.5564 6.44365C35.5135 4.40076 33.0882 2.78025 30.419 1.67465C27.7499 0.569047 24.8891 0 22 0ZM28.996 33.3344C28.9139 33.5399 28.7888 33.7255 28.629 33.8787C28.4692 34.0318 28.2785 34.149 28.0697 34.2224C27.8609 34.2957 27.6388 34.3235 27.4184 34.304C27.1979 34.2844 26.9842 34.2178 26.7916 34.1088L20.8186 29.4668L16.9862 33.0044C16.8972 33.0701 16.7932 33.1123 16.6837 33.1273C16.5741 33.1423 16.4625 33.1296 16.3592 33.0902L17.094 26.5144L17.116 26.5342L17.1314 26.4044C17.1314 26.4044 27.8784 16.6188 28.3162 16.203C28.7606 15.7872 28.6132 15.697 28.6132 15.697C28.6396 15.191 27.819 15.697 27.819 15.697L13.5784 24.8578L7.64941 22.8382C7.64941 22.8382 6.73861 22.5126 6.65281 21.7932C6.56261 21.0804 7.67801 20.6932 7.67801 20.6932L31.2554 11.3256C31.2554 11.3256 33.1936 10.4632 33.1936 11.8932L28.996 33.3344Z" fill="white"/>
</svg>
