<svg width="44" height="44" viewBox="0 0 44 44" fill="none" xmlns="http://www.w3.org/2000/svg">
<g clip-path="url(#clip0_404_87)">
<path d="M23.0707 19.5214V34.7747H20.2253V18.4507L23.0707 19.5214Z" fill="white"/>
<path d="M11.7041 18.0987C11.7041 14.1973 13.8308 12.0707 16.3241 12.0707C18.8174 12.0707 19.1694 12.4227 22.0001 13.8453C24.8308 15.268 25.5494 15.62 26.9721 15.62C28.3948 15.62 29.0988 14.5493 29.0988 12.4227H31.5774C31.9294 16.676 29.4508 18.4507 26.9574 18.4507C24.4641 18.4507 23.7601 18.0987 21.2814 16.676C18.8028 15.2533 18.0841 14.9013 16.6614 14.9013C15.2388 14.9013 14.5348 15.972 14.1828 18.4507L11.7041 18.0987Z" fill="white"/>
<path d="M22 44C9.87067 44 0 34.1293 0 22C0 9.87067 9.87067 0 22 0C34.1293 0 44 9.87067 44 22C44 34.1293 34.1293 44 22 44ZM22 1.42267C10.648 1.42267 1.42267 10.648 1.42267 22C1.42267 33.352 10.648 42.5773 22 42.5773C33.352 42.5773 42.5773 33.352 42.5773 22C42.5773 10.648 33.352 1.42267 22 1.42267Z" fill="white"/>
</g>
<defs>
<clipPath id="clip0_404_87">
<rect width="44" height="44" fill="white"/>
</clipPath>
</defs>
</svg>
