<svg width="44" height="44" viewBox="0 0 44 44" fill="none" xmlns="http://www.w3.org/2000/svg">
<path d="M32.076 26.3684C31.5246 26.0893 28.8392 24.7789 28.3374 24.5919C27.8355 24.4131 27.4711 24.3196 27.1054 24.871C26.7479 25.4086 25.6946 26.6392 25.3729 26.9981C25.0511 27.357 24.7349 27.3845 24.1917 27.1411C23.6404 26.862 21.879 26.2886 19.7876 24.4131C18.1541 22.9597 17.0665 21.1695 16.7434 20.6181C16.4216 20.0736 16.7076 19.7656 16.9799 19.4934C17.2301 19.2431 17.5312 18.8636 17.8104 18.5336C18.0758 18.2036 18.161 17.9823 18.3549 17.6248C18.5336 17.2384 18.4415 16.9373 18.3054 16.665C18.1693 16.3927 17.0734 13.6936 16.6155 12.6184C16.1782 11.5514 15.7204 11.6875 15.3835 11.6875C15.0686 11.6586 14.7029 11.6586 14.3385 11.6586C13.9741 11.6586 13.3787 11.7948 12.8769 12.3173C12.375 12.8686 10.9574 14.1859 10.9574 16.8506C10.9574 19.5222 12.9195 22.1072 13.1917 22.4936C13.4709 22.8511 17.0514 28.3511 22.5445 30.7147C23.8549 31.2661 24.8724 31.5961 25.6671 31.8684C26.9775 32.2836 28.1737 32.2259 29.1184 32.0897C30.1634 31.9179 32.3551 30.7642 32.8144 29.4759C33.2805 28.1793 33.2805 27.1054 33.1444 26.862C33.0083 26.6117 32.6507 26.4756 32.0994 26.2322L32.076 26.3684ZM22.1141 39.875H22.0853C18.8334 39.875 15.6186 38.9936 12.8109 37.3464L12.1523 36.9531L5.27725 38.7434L7.12525 32.054L6.68113 31.3665C4.86539 28.4795 3.90211 25.1383 3.90225 21.7278C3.90225 11.7452 12.0739 3.6025 22.1279 3.6025C26.9981 3.6025 31.5672 5.5 35.0047 8.9375C36.7005 10.6131 38.0456 12.6096 38.9616 14.8105C39.8775 17.0114 40.346 19.3727 40.3397 21.7566C40.326 31.7323 32.1612 39.875 22.121 39.875H22.1141ZM37.6186 6.32363C33.4359 2.28387 27.9359 0 22.0853 0C10.0183 0 0.1925 9.78312 0.185625 21.8061C0.185625 25.6451 1.188 29.3906 3.1075 32.7057L0 44L11.616 40.9709C14.8339 42.7058 18.4308 43.6184 22.0866 43.6274H22.0935C34.1674 43.6274 43.9931 33.8442 44 21.813C44 15.9913 41.7299 10.5119 37.5911 6.39375L37.6186 6.32363Z" fill="white"/>
</svg>
